<svg xmlns="http://www.w3.org/2000/svg" xmlns:xlink="http://www.w3.org/1999/xlink" xmlns:lucid="lucid" width="670" height="1088"><g transform="translate(8 8)" lucid:page-tab-id="0_0"><path d="M0 0h1120v1414.4H0z" fill="#fff"/><path d="M58 265c0-2.76 2.24-5 5-5h365c2.76 0 5 2.24 5 5v222c0 2.76-2.24 5-5 5H63c-2.76 0-5-2.24-5-5z" fill="#fff"/><path d="M58 260h375v40H58z" fill="#ccc"/><path d="M58 265c0-2.76 2.24-5 5-5h365c2.76 0 5 2.24 5 5v222c0 2.76-2.24 5-5 5H63c-2.76 0-5-2.24-5-5zM58 300h375M118 300v192M275.5 300v192" stroke="#3d4752" stroke-width="2" fill="none"/><use xlink:href="#a" transform="matrix(1,0,0,1,68,260) translate(158.55 23.6)"/><use xlink:href="#b" transform="matrix(1,0,0,1,63,302.5) translate(13 17.1)"/><use xlink:href="#c" transform="matrix(1,0,0,1,123,302.5) translate(0 17.1)"/><use xlink:href="#d" transform="matrix(1,0,0,1,280.5,302.5) translate(0 17.1)"/><use xlink:href="#e" transform="matrix(1,0,0,1,123,334.5) translate(0 17.1)"/><use xlink:href="#f" transform="matrix(1,0,0,1,280.5,334.5) translate(0 17.1)"/><use xlink:href="#g" transform="matrix(1,0,0,1,123,366.5) translate(0 17.1)"/><use xlink:href="#h" transform="matrix(1,0,0,1,280.5,366.5) translate(0 17.1)"/><use xlink:href="#i" transform="matrix(1,0,0,1,123,398.5) translate(0 17.1)"/><use xlink:href="#h" transform="matrix(1,0,0,1,280.5,398.5) translate(0 17.1)"/><use xlink:href="#j" transform="matrix(1,0,0,1,123,430.5) translate(0 17.1)"/><use xlink:href="#k" transform="matrix(1,0,0,1,280.5,430.5) translate(0 17.1)"/><use xlink:href="#l" transform="matrix(1,0,0,1,123,462.5) translate(0 17.1)"/><use xlink:href="#m" transform="matrix(1,0,0,1,280.5,462.5) translate(0 17.1)"/><path d="M322 897c0-2.76 2.24-5 5-5h310c2.76 0 5 2.24 5 5v158c0 2.76-2.24 5-5 5H327c-2.76 0-5-2.24-5-5z" fill="#fff"/><path d="M322 892h320v40H322z" fill="#ccc"/><path d="M322 897c0-2.76 2.24-5 5-5h310c2.76 0 5 2.24 5 5v158c0 2.76-2.24 5-5 5H327c-2.76 0-5-2.24-5-5zM322 932h320M382 932v128M512 932v128" stroke="#3d4752" stroke-width="2" fill="none"/><use xlink:href="#n" transform="matrix(1,0,0,1,332,892) translate(132 23.6)"/><use xlink:href="#b" transform="matrix(1,0,0,1,327,934.5) translate(13 17.1)"/><use xlink:href="#o" transform="matrix(1,0,0,1,387,934.5) translate(0 17.1)"/><use xlink:href="#d" transform="matrix(1,0,0,1,517,934.5) translate(0 17.1)"/><use xlink:href="#p" transform="matrix(1,0,0,1,327,966.5) translate(13.524999999999999 17.1)"/><use xlink:href="#q" transform="matrix(1,0,0,1,387,966.5) translate(0 17.1)"/><use xlink:href="#r" transform="matrix(1,0,0,1,517,966.5) translate(0 17.1)"/><use xlink:href="#s" transform="matrix(1,0,0,1,387,998.5) translate(0 17.1)"/><use xlink:href="#t" transform="matrix(1,0,0,1,517,998.5) translate(0 17.1)"/><use xlink:href="#u" transform="matrix(1,0,0,1,387,1030.5) translate(0 17.1)"/><use xlink:href="#v" transform="matrix(1,0,0,1,517,1030.5) translate(0 17.1)"/><path d="M12 649c0-2.76 2.24-5 5-5h270c2.76 0 5 2.24 5 5v126c0 2.76-2.24 5-5 5H17c-2.76 0-5-2.24-5-5z" fill="#fff"/><path d="M12 644h280v40H12z" fill="#ccc"/><path d="M12 649c0-2.76 2.24-5 5-5h270c2.76 0 5 2.24 5 5v126c0 2.76-2.24 5-5 5H17c-2.76 0-5-2.24-5-5zM12 684h280M72 684v96M182 684v96" stroke="#3d4752" stroke-width="2" fill="none"/><use xlink:href="#w" transform="matrix(1,0,0,1,22,644) translate(91.07499999999999 23.6)"/><use xlink:href="#u" transform="matrix(1,0,0,1,77,686.5) translate(0 17.1)"/><use xlink:href="#v" transform="matrix(1,0,0,1,187,686.5) translate(0 17.1)"/><use xlink:href="#x" transform="matrix(1,0,0,1,17,718.5) translate(-0.9750000000000014 17.1)"/><use xlink:href="#q" transform="matrix(1,0,0,1,77,718.5) translate(0 17.1)"/><use xlink:href="#r" transform="matrix(1,0,0,1,187,718.5) translate(0 17.1)"/><use xlink:href="#x" transform="matrix(1,0,0,1,17,750.5) translate(-0.9750000000000014 17.1)"/><use xlink:href="#y" transform="matrix(1,0,0,1,77,750.5) translate(0 17.1)"/><use xlink:href="#r" transform="matrix(1,0,0,1,187,750.5) translate(0 17.1)"/><path d="M70 17c0-2.76 2.24-5 5-5h330c2.76 0 5 2.24 5 5v126c0 2.76-2.24 5-5 5H75c-2.76 0-5-2.24-5-5z" fill="#fff"/><path d="M70 12h340v40H70z" fill="#ccc"/><path d="M70 17c0-2.76 2.24-5 5-5h330c2.76 0 5 2.24 5 5v126c0 2.76-2.24 5-5 5H75c-2.76 0-5-2.24-5-5zM70 52h340M130 52v96M270 52v96" stroke="#3d4752" stroke-width="2" fill="none"/><use xlink:href="#z" transform="matrix(1,0,0,1,80,12) translate(112.39225260416666 24.756901041666666)"/><use xlink:href="#A" transform="matrix(1,0,0,1,75,54.5) translate(-0.9750000000000014 17.1)"/><use xlink:href="#c" transform="matrix(1,0,0,1,135,54.5) translate(0 17.1)"/><use xlink:href="#d" transform="matrix(1,0,0,1,275,54.5) translate(0 17.1)"/><use xlink:href="#A" transform="matrix(1,0,0,1,75,86.5) translate(-0.9750000000000014 17.1)"/><use xlink:href="#B" transform="matrix(1,0,0,1,135,86.5) translate(0 17.1)"/><use xlink:href="#d" transform="matrix(1,0,0,1,275,86.5) translate(0 17.1)"/><use xlink:href="#C" transform="matrix(1,0,0,1,135,118.5) translate(0 17.1)"/><use xlink:href="#D" transform="matrix(1,0,0,1,275,118.5) translate(0 17.1)"/><path d="M372 665c0-2.76 2.24-5 5-5h210c2.76 0 5 2.24 5 5v94c0 2.76-2.24 5-5 5H377c-2.76 0-5-2.24-5-5z" fill="#fff"/><path d="M372 660h220v40H372z" fill="#ccc"/><path d="M372 665c0-2.76 2.24-5 5-5h210c2.76 0 5 2.24 5 5v94c0 2.76-2.24 5-5 5H377c-2.76 0-5-2.24-5-5zM372 700h220M432 700v64M512 700v64" stroke="#3d4752" stroke-width="2" fill="none"/><use xlink:href="#E" transform="matrix(1,0,0,1,382,660) translate(0 23.6)"/><use xlink:href="#F" transform="matrix(1,0,0,1,377,702.5) translate(0 17.1)"/><use xlink:href="#G" transform="matrix(1,0,0,1,437,702.5) translate(0 17.1)"/><use xlink:href="#H" transform="matrix(1,0,0,1,517,702.5) translate(0 17.1)"/><use xlink:href="#F" transform="matrix(1,0,0,1,377,734.5) translate(0 17.1)"/><use xlink:href="#I" transform="matrix(1,0,0,1,437,734.5) translate(0 17.1)"/><use xlink:href="#H" transform="matrix(1,0,0,1,517,734.5) translate(0 17.1)"/><path d="M245.5 513v70c0 2.76 2.24 5 5 5H477c2.76 0 5 2.24 5 5v47.18" stroke="#999" stroke-width="2" fill="none"/><path d="M235.5 503h20M245.5 493v20M235.5 513h20M472 658.55l10-20 10 20M482 658.55v-20" stroke="#999" stroke-width="2" fill="#fff"/><path d="M150.94 513v54.47c0 .3.24.53.53.53.3 0 .53.24.53.53V604" stroke="#999" stroke-width="2" fill="none"/><path d="M140.94 503h20M150.94 493v20M140.94 513h20M142 642.55l10-20 10 20M152 642.55v-20M162 612.55c0 5.53-4.48 10-10 10s-10-4.47-10-10c0-5.52 4.48-10 10-10s10 4.48 10 10" stroke="#999" stroke-width="2" fill="#fff"/><path d="M482 804v48" stroke="#999" stroke-width="2" fill="none"/><path d="M492 765.45l-10 20-10-20M482 765.45v20M492 795.45c0 5.52-4.48 10-10 10s-10-4.48-10-10c0-5.53 4.48-10 10-10s10 4.47 10 10M492 881h-20M482 891v-20M492 861c0 5.52-4.48 10-10 10s-10-4.48-10-10 4.48-10 10-10 10 4.48 10 10" stroke="#999" stroke-width="2" fill="#fff"/><path d="M152 820v11c0 2.76 2.24 5 5 5h239.05c2.76 0 5 2.24 5 5v30" stroke="#999" stroke-width="2" fill="none"/><path d="M162 781.45l-10 20-10-20M152 781.45v20M162 811.45c0 5.52-4.48 10-10 10s-10-4.48-10-10c0-5.53 4.48-10 10-10s10 4.47 10 10M411.05 881h-20M401.05 891v-20M411.05 871h-20" stroke="#999" stroke-width="2" fill="#fff"/><path d="M182.5 188v15.98s0 .02-.02.02c0 0-.02 0-.02.02V239" stroke="#999" stroke-width="2" fill="none"/><path d="M192.5 149.45l-10 20-10-20M182.5 149.45v20M192.5 179.45c0 5.52-4.48 10-10 10s-10-4.48-10-10c0-5.53 4.48-10 10-10s10 4.47 10 10M192.46 249h-20M182.46 259v-20M192.46 239h-20" stroke="#999" stroke-width="2" fill="#fff"/><path d="M297.5 188v11c0 2.76 2.24 5 5 5h1.04c2.76 0 5 2.24 5 5v30" stroke="#999" stroke-width="2" fill="none"/><path d="M307.5 149.45l-10 20-10-20M297.5 149.45v20M307.5 179.45c0 5.52-4.48 10-10 10s-10-4.48-10-10c0-5.53 4.48-10 10-10s10 4.47 10 10M318.54 249h-20M308.54 259v-20M318.54 239h-20" stroke="#999" stroke-width="2" fill="#fff"/><path d="M340.06 513v174c0 2.76 2.24 5 5 5h212.9c2.75 0 5 2.24 5 5v155" stroke="#999" stroke-width="2" fill="none"/><path d="M330.06 503h20M340.06 493v20M330.06 513h20M552.95 890.55l10-20 10 20M562.95 890.55v-20M572.95 860.55c0 5.53-4.47 10-10 10-5.52 0-10-4.47-10-10 0-5.52 4.48-10 10-10 5.53 0 10 4.48 10 10" stroke="#999" stroke-width="2" fill="#fff"/><defs><path d="M232-93c-1 65-40 97-104 97C67 4 28-28 28-90v-158h33c8 89-33 224 67 224 102 0 64-133 71-224h33v155" id="J"/><path d="M135-143c-3-34-86-38-87 0 15 53 115 12 119 90S17 21 10-45l28-5c4 36 97 45 98 0-10-56-113-15-118-90-4-57 82-63 122-42 12 7 21 19 24 35" id="K"/><path d="M100-194c63 0 86 42 84 106H49c0 40 14 67 53 68 26 1 43-12 49-29l28 8c-11 28-37 45-77 45C44 4 14-33 15-96c1-61 26-98 85-98zm52 81c6-60-76-77-97-28-3 7-6 17-6 28h103" id="L"/><path d="M114-163C36-179 61-72 57 0H25l-1-190h30c1 12-1 29 2 39 6-27 23-49 58-41v29" id="M"/><g id="a"><use transform="matrix(0.05,0,0,0.05,0,0)" xlink:href="#J"/><use transform="matrix(0.05,0,0,0.05,12.950000000000001,0)" xlink:href="#K"/><use transform="matrix(0.05,0,0,0.05,21.950000000000003,0)" xlink:href="#L"/><use transform="matrix(0.05,0,0,0.05,31.950000000000003,0)" xlink:href="#M"/></g><path d="M30-248c87 1 191-15 191 75 0 78-77 80-158 76V0H30v-248zm33 125c57 0 124 11 124-50 0-59-68-47-124-48v98" id="N"/><path d="M194 0L95-120 63-95V0H30v-248h33v124l119-124h40L117-140 236 0h-42" id="O"/><g id="b"><use transform="matrix(0.05,0,0,0.05,0,0)" xlink:href="#N"/><use transform="matrix(0.05,0,0,0.05,12,0)" xlink:href="#O"/></g><path d="M84 4C-5 8 30-112 23-190h32v120c0 31 7 50 39 49 72-2 45-101 50-169h31l1 190h-30c-1-10 1-25-2-33-11 22-28 36-60 37" id="P"/><path d="M-5 72V49h209v23H-5" id="Q"/><path d="M24-231v-30h32v30H24zM24 0v-190h32V0H24" id="R"/><path d="M85-194c31 0 48 13 60 33l-1-100h32l1 261h-30c-2-10 0-23-3-31C134-8 116 4 85 4 32 4 16-35 15-94c0-66 23-100 70-100zm9 24c-40 0-46 34-46 75 0 40 6 74 45 74 42 0 51-32 51-76 0-42-9-74-50-73" id="S"/><g id="c"><use transform="matrix(0.05,0,0,0.05,0,0)" xlink:href="#P"/><use transform="matrix(0.05,0,0,0.05,10,0)" xlink:href="#K"/><use transform="matrix(0.05,0,0,0.05,19,0)" xlink:href="#L"/><use transform="matrix(0.05,0,0,0.05,29,0)" xlink:href="#M"/><use transform="matrix(0.05,0,0,0.05,34.95,0)" xlink:href="#Q"/><use transform="matrix(0.05,0,0,0.05,44.95,0)" xlink:href="#R"/><use transform="matrix(0.05,0,0,0.05,48.900000000000006,0)" xlink:href="#S"/></g><path d="M33 0v-248h34V0H33" id="T"/><path d="M190 0L58-211 59 0H30v-248h39L202-35l-2-213h31V0h-41" id="U"/><path d="M127-220V0H93v-220H8v-28h204v28h-85" id="V"/><g id="d"><use transform="matrix(0.05,0,0,0.05,0,0)" xlink:href="#T"/><use transform="matrix(0.05,0,0,0.05,5,0)" xlink:href="#U"/><use transform="matrix(0.05,0,0,0.05,17.950000000000003,0)" xlink:href="#V"/></g><path d="M117-194c89-4 53 116 60 194h-32v-121c0-31-8-49-39-48C34-167 62-67 57 0H25l-1-190h30c1 10-1 24 2 32 11-22 29-35 61-36" id="W"/><path d="M141-36C126-15 110 5 73 4 37 3 15-17 15-53c-1-64 63-63 125-63 3-35-9-54-41-54-24 1-41 7-42 31l-33-3c5-37 33-52 76-52 45 0 72 20 72 64v82c-1 20 7 32 28 27v20c-31 9-61-2-59-35zM48-53c0 20 12 33 32 33 41-3 63-29 60-74-43 2-92-5-92 41" id="X"/><path d="M210-169c-67 3-38 105-44 169h-31v-121c0-29-5-50-35-48C34-165 62-65 56 0H25l-1-190h30c1 10-1 24 2 32 10-44 99-50 107 0 11-21 27-35 58-36 85-2 47 119 55 194h-31v-121c0-29-5-49-35-48" id="Y"/><g id="e"><use transform="matrix(0.05,0,0,0.05,0,0)" xlink:href="#P"/><use transform="matrix(0.05,0,0,0.05,10,0)" xlink:href="#K"/><use transform="matrix(0.05,0,0,0.05,19,0)" xlink:href="#L"/><use transform="matrix(0.05,0,0,0.05,29,0)" xlink:href="#M"/><use transform="matrix(0.05,0,0,0.05,34.95,0)" xlink:href="#W"/><use transform="matrix(0.05,0,0,0.05,44.95,0)" xlink:href="#X"/><use transform="matrix(0.05,0,0,0.05,54.95,0)" xlink:href="#Y"/><use transform="matrix(0.05,0,0,0.05,69.9,0)" xlink:href="#L"/></g><path d="M137 0h-34L2-248h35l83 218 83-218h36" id="Z"/><path d="M205 0l-28-72H64L36 0H1l101-248h38L239 0h-34zm-38-99l-47-123c-12 45-31 82-46 123h93" id="aa"/><path d="M233-177c-1 41-23 64-60 70L243 0h-38l-65-103H63V0H30v-248c88 3 205-21 203 71zM63-129c60-2 137 13 137-47 0-61-80-42-137-45v92" id="ab"/><path d="M212-179c-10-28-35-45-73-45-59 0-87 40-87 99 0 60 29 101 89 101 43 0 62-24 78-52l27 14C228-24 195 4 139 4 59 4 22-46 18-125c-6-104 99-153 187-111 19 9 31 26 39 46" id="ac"/><path d="M197 0v-115H63V0H30v-248h33v105h134v-105h34V0h-34" id="ad"/><path d="M87 75C49 33 22-17 22-94c0-76 28-126 65-167h31c-38 41-64 92-64 168S80 34 118 75H87" id="ae"/><path d="M155-56V0h-30v-56H8v-25l114-167h33v167h35v25h-35zm-30-156c-27 46-58 90-88 131h88v-131" id="af"/><path d="M101-251c68 0 85 55 85 127S166 4 100 4C33 4 14-52 14-124c0-73 17-127 87-127zm-1 229c47 0 54-49 54-102s-4-102-53-102c-51 0-55 48-55 102 0 53 5 102 54 102" id="ag"/><path d="M33-261c38 41 65 92 65 168S71 34 33 75H2C39 34 66-17 66-93S39-220 2-261h31" id="ah"/><g id="f"><use transform="matrix(0.05,0,0,0.05,0,0)" xlink:href="#Z"/><use transform="matrix(0.05,0,0,0.05,10.65,0)" xlink:href="#aa"/><use transform="matrix(0.05,0,0,0.05,22.65,0)" xlink:href="#ab"/><use transform="matrix(0.05,0,0,0.05,35.6,0)" xlink:href="#ac"/><use transform="matrix(0.05,0,0,0.05,48.550000000000004,0)" xlink:href="#ad"/><use transform="matrix(0.05,0,0,0.05,61.5,0)" xlink:href="#aa"/><use transform="matrix(0.05,0,0,0.05,73.5,0)" xlink:href="#ab"/><use transform="matrix(0.05,0,0,0.05,86.45,0)" xlink:href="#ae"/><use transform="matrix(0.05,0,0,0.05,92.4,0)" xlink:href="#af"/><use transform="matrix(0.05,0,0,0.05,102.4,0)" xlink:href="#ag"/><use transform="matrix(0.05,0,0,0.05,112.4,0)" xlink:href="#ah"/></g><path d="M101-234c-31-9-42 10-38 44h38v23H63V0H32v-167H5v-23h27c-7-52 17-82 69-68v24" id="ai"/><path d="M24 0v-261h32V0H24" id="aj"/><g id="g"><use transform="matrix(0.05,0,0,0.05,0,0)" xlink:href="#ai"/><use transform="matrix(0.05,0,0,0.05,5,0)" xlink:href="#P"/><use transform="matrix(0.05,0,0,0.05,15,0)" xlink:href="#aj"/><use transform="matrix(0.05,0,0,0.05,18.95,0)" xlink:href="#aj"/><use transform="matrix(0.05,0,0,0.05,22.9,0)" xlink:href="#W"/><use transform="matrix(0.05,0,0,0.05,32.9,0)" xlink:href="#X"/><use transform="matrix(0.05,0,0,0.05,42.9,0)" xlink:href="#Y"/><use transform="matrix(0.05,0,0,0.05,57.85,0)" xlink:href="#L"/></g><path d="M54-142c48-35 137-8 131 61C196 18 31 33 14-55l32-4c7 23 22 37 52 37 35-1 51-22 54-58 4-55-73-65-99-34H22l8-134h141v27H59" id="ak"/><g id="h"><use transform="matrix(0.05,0,0,0.05,0,0)" xlink:href="#Z"/><use transform="matrix(0.05,0,0,0.05,10.65,0)" xlink:href="#aa"/><use transform="matrix(0.05,0,0,0.05,22.65,0)" xlink:href="#ab"/><use transform="matrix(0.05,0,0,0.05,35.6,0)" xlink:href="#ac"/><use transform="matrix(0.05,0,0,0.05,48.550000000000004,0)" xlink:href="#ad"/><use transform="matrix(0.05,0,0,0.05,61.5,0)" xlink:href="#aa"/><use transform="matrix(0.05,0,0,0.05,73.5,0)" xlink:href="#ab"/><use transform="matrix(0.05,0,0,0.05,86.45,0)" xlink:href="#ae"/><use transform="matrix(0.05,0,0,0.05,92.4,0)" xlink:href="#ak"/><use transform="matrix(0.05,0,0,0.05,102.4,0)" xlink:href="#ag"/><use transform="matrix(0.05,0,0,0.05,112.4,0)" xlink:href="#ah"/></g><g id="i"><use transform="matrix(0.05,0,0,0.05,0,0)" xlink:href="#L"/><use transform="matrix(0.05,0,0,0.05,10,0)" xlink:href="#Y"/><use transform="matrix(0.05,0,0,0.05,24.950000000000003,0)" xlink:href="#X"/><use transform="matrix(0.05,0,0,0.05,34.95,0)" xlink:href="#R"/><use transform="matrix(0.05,0,0,0.05,38.900000000000006,0)" xlink:href="#aj"/></g><path d="M115-194c55 1 70 41 70 98S169 2 115 4C84 4 66-9 55-30l1 105H24l-1-265h31l2 30c10-21 28-34 59-34zm-8 174c40 0 45-34 45-75s-6-73-45-74c-42 0-51 32-51 76 0 43 10 73 51 73" id="al"/><path d="M206 0h-36l-40-164L89 0H53L-1-190h32L70-26l43-164h34l41 164 42-164h31" id="am"/><path d="M100-194c62-1 85 37 85 99 1 63-27 99-86 99S16-35 15-95c0-66 28-99 85-99zM99-20c44 1 53-31 53-75 0-43-8-75-51-75s-53 32-53 75 10 74 51 75" id="an"/><g id="j"><use transform="matrix(0.05,0,0,0.05,0,0)" xlink:href="#al"/><use transform="matrix(0.05,0,0,0.05,10,0)" xlink:href="#X"/><use transform="matrix(0.05,0,0,0.05,20,0)" xlink:href="#K"/><use transform="matrix(0.05,0,0,0.05,29,0)" xlink:href="#K"/><use transform="matrix(0.05,0,0,0.05,38,0)" xlink:href="#am"/><use transform="matrix(0.05,0,0,0.05,50.95,0)" xlink:href="#an"/><use transform="matrix(0.05,0,0,0.05,60.95,0)" xlink:href="#M"/><use transform="matrix(0.05,0,0,0.05,66.9,0)" xlink:href="#S"/></g><path d="M27 0v-27h64v-190l-56 39v-29l58-41h29v221h61V0H27" id="ao"/><g id="k"><use transform="matrix(0.05,0,0,0.05,0,0)" xlink:href="#Z"/><use transform="matrix(0.05,0,0,0.05,10.65,0)" xlink:href="#aa"/><use transform="matrix(0.05,0,0,0.05,22.65,0)" xlink:href="#ab"/><use transform="matrix(0.05,0,0,0.05,35.6,0)" xlink:href="#ac"/><use transform="matrix(0.05,0,0,0.05,48.550000000000004,0)" xlink:href="#ad"/><use transform="matrix(0.05,0,0,0.05,61.5,0)" xlink:href="#aa"/><use transform="matrix(0.05,0,0,0.05,73.5,0)" xlink:href="#ab"/><use transform="matrix(0.05,0,0,0.05,86.45,0)" xlink:href="#ae"/><use transform="matrix(0.05,0,0,0.05,92.4,0)" xlink:href="#ao"/><use transform="matrix(0.05,0,0,0.05,102.4,0)" xlink:href="#ag"/><use transform="matrix(0.05,0,0,0.05,112.4,0)" xlink:href="#ag"/><use transform="matrix(0.05,0,0,0.05,122.4,0)" xlink:href="#ah"/></g><path d="M177-190C167-65 218 103 67 71c-23-6-38-20-44-43l32-5c15 47 100 32 89-28v-30C133-14 115 1 83 1 29 1 15-40 15-95c0-56 16-97 71-98 29-1 48 16 59 35 1-10 0-23 2-32h30zM94-22c36 0 50-32 50-73 0-42-14-75-50-75-39 0-46 34-46 75s6 73 46 73" id="ap"/><g id="l"><use transform="matrix(0.05,0,0,0.05,0,0)" xlink:href="#al"/><use transform="matrix(0.05,0,0,0.05,10,0)" xlink:href="#M"/><use transform="matrix(0.05,0,0,0.05,15.949999999999998,0)" xlink:href="#an"/><use transform="matrix(0.05,0,0,0.05,25.950000000000003,0)" xlink:href="#ai"/><use transform="matrix(0.05,0,0,0.05,30.950000000000003,0)" xlink:href="#R"/><use transform="matrix(0.05,0,0,0.05,34.9,0)" xlink:href="#aj"/><use transform="matrix(0.05,0,0,0.05,38.85,0)" xlink:href="#L"/><use transform="matrix(0.05,0,0,0.05,48.85,0)" xlink:href="#Q"/><use transform="matrix(0.05,0,0,0.05,58.85,0)" xlink:href="#R"/><use transform="matrix(0.05,0,0,0.05,62.800000000000004,0)" xlink:href="#Y"/><use transform="matrix(0.05,0,0,0.05,77.75,0)" xlink:href="#X"/><use transform="matrix(0.05,0,0,0.05,87.75,0)" xlink:href="#ap"/><use transform="matrix(0.05,0,0,0.05,97.75,0)" xlink:href="#L"/><use transform="matrix(0.05,0,0,0.05,107.75,0)" xlink:href="#Q"/><use transform="matrix(0.05,0,0,0.05,117.75,0)" xlink:href="#P"/><use transform="matrix(0.05,0,0,0.05,127.75,0)" xlink:href="#M"/><use transform="matrix(0.05,0,0,0.05,133.7,0)" xlink:href="#aj"/></g><path d="M101-251c82-7 93 87 43 132L82-64C71-53 59-42 53-27h129V0H18c2-99 128-94 128-182 0-28-16-43-45-43s-46 15-49 41l-32-3c6-41 34-60 81-64" id="aq"/><g id="m"><use transform="matrix(0.05,0,0,0.05,0,0)" xlink:href="#Z"/><use transform="matrix(0.05,0,0,0.05,10.65,0)" xlink:href="#aa"/><use transform="matrix(0.05,0,0,0.05,22.65,0)" xlink:href="#ab"/><use transform="matrix(0.05,0,0,0.05,35.6,0)" xlink:href="#ac"/><use transform="matrix(0.05,0,0,0.05,48.550000000000004,0)" xlink:href="#ad"/><use transform="matrix(0.05,0,0,0.05,61.5,0)" xlink:href="#aa"/><use transform="matrix(0.05,0,0,0.05,73.5,0)" xlink:href="#ab"/><use transform="matrix(0.05,0,0,0.05,86.45,0)" xlink:href="#ae"/><use transform="matrix(0.05,0,0,0.05,92.4,0)" xlink:href="#aq"/><use transform="matrix(0.05,0,0,0.05,102.4,0)" xlink:href="#ak"/><use transform="matrix(0.05,0,0,0.05,112.4,0)" xlink:href="#ak"/><use transform="matrix(0.05,0,0,0.05,122.4,0)" xlink:href="#ah"/></g><path d="M59-47c-2 24 18 29 38 22v24C64 9 27 4 27-40v-127H5v-23h24l9-43h21v43h35v23H59v120" id="ar"/><g id="n"><use transform="matrix(0.05,0,0,0.05,0,0)" xlink:href="#N"/><use transform="matrix(0.05,0,0,0.05,12,0)" xlink:href="#an"/><use transform="matrix(0.05,0,0,0.05,22,0)" xlink:href="#K"/><use transform="matrix(0.05,0,0,0.05,31,0)" xlink:href="#ar"/></g><g id="o"><use transform="matrix(0.05,0,0,0.05,0,0)" xlink:href="#al"/><use transform="matrix(0.05,0,0,0.05,10,0)" xlink:href="#an"/><use transform="matrix(0.05,0,0,0.05,20,0)" xlink:href="#K"/><use transform="matrix(0.05,0,0,0.05,29,0)" xlink:href="#ar"/><use transform="matrix(0.05,0,0,0.05,34,0)" xlink:href="#Q"/><use transform="matrix(0.05,0,0,0.05,44,0)" xlink:href="#R"/><use transform="matrix(0.05,0,0,0.05,47.95,0)" xlink:href="#S"/></g><path d="M63-220v92h138v28H63V0H30v-248h175v28H63" id="as"/><g id="p"><use transform="matrix(0.05,0,0,0.05,0,0)" xlink:href="#as"/><use transform="matrix(0.05,0,0,0.05,10.950000000000001,0)" xlink:href="#O"/></g><g id="q"><use transform="matrix(0.05,0,0,0.05,0,0)" xlink:href="#P"/><use transform="matrix(0.05,0,0,0.05,10,0)" xlink:href="#K"/><use transform="matrix(0.05,0,0,0.05,19,0)" xlink:href="#L"/><use transform="matrix(0.05,0,0,0.05,29,0)" xlink:href="#M"/><use transform="matrix(0.05,0,0,0.05,34.95,0)" xlink:href="#Q"/><use transform="matrix(0.05,0,0,0.05,44.95,0)" xlink:href="#R"/><use transform="matrix(0.05,0,0,0.05,48.900000000000006,0)" xlink:href="#S"/></g><g id="r"><use transform="matrix(0.05,0,0,0.05,0,0)" xlink:href="#T"/><use transform="matrix(0.05,0,0,0.05,5,0)" xlink:href="#U"/><use transform="matrix(0.05,0,0,0.05,17.950000000000003,0)" xlink:href="#V"/></g><g id="s"><use transform="matrix(0.05,0,0,0.05,0,0)" xlink:href="#ar"/><use transform="matrix(0.05,0,0,0.05,5,0)" xlink:href="#R"/><use transform="matrix(0.05,0,0,0.05,8.95,0)" xlink:href="#ar"/><use transform="matrix(0.05,0,0,0.05,13.949999999999998,0)" xlink:href="#aj"/><use transform="matrix(0.05,0,0,0.05,17.9,0)" xlink:href="#L"/></g><g id="t"><use transform="matrix(0.05,0,0,0.05,0,0)" xlink:href="#Z"/><use transform="matrix(0.05,0,0,0.05,10.65,0)" xlink:href="#aa"/><use transform="matrix(0.05,0,0,0.05,22.65,0)" xlink:href="#ab"/><use transform="matrix(0.05,0,0,0.05,35.6,0)" xlink:href="#ac"/><use transform="matrix(0.05,0,0,0.05,48.550000000000004,0)" xlink:href="#ad"/><use transform="matrix(0.05,0,0,0.05,61.5,0)" xlink:href="#aa"/><use transform="matrix(0.05,0,0,0.05,73.5,0)" xlink:href="#ab"/><use transform="matrix(0.05,0,0,0.05,86.45,0)" xlink:href="#ae"/><use transform="matrix(0.05,0,0,0.05,92.4,0)" xlink:href="#ak"/><use transform="matrix(0.05,0,0,0.05,102.4,0)" xlink:href="#ag"/><use transform="matrix(0.05,0,0,0.05,112.4,0)" xlink:href="#ah"/></g><path d="M115-194c53 0 69 39 70 98 0 66-23 100-70 100C84 3 66-7 56-30L54 0H23l1-261h32v101c10-23 28-34 59-34zm-8 174c40 0 45-34 45-75 0-40-5-75-45-74-42 0-51 32-51 76 0 43 10 73 51 73" id="at"/><path d="M179-190L93 31C79 59 56 82 12 73V49c39 6 53-20 64-50L1-190h34L92-34l54-156h33" id="au"/><g id="u"><use transform="matrix(0.05,0,0,0.05,0,0)" xlink:href="#at"/><use transform="matrix(0.05,0,0,0.05,10,0)" xlink:href="#an"/><use transform="matrix(0.05,0,0,0.05,20,0)" xlink:href="#S"/><use transform="matrix(0.05,0,0,0.05,30,0)" xlink:href="#au"/></g><path d="M30 0v-248h187v28H63v79h144v27H63v87h162V0H30" id="av"/><path d="M195 0l-74-108L45 0H8l94-129-87-119h37l69 98 67-98h37l-84 118L233 0h-38" id="aw"/><g id="v"><use transform="matrix(0.05,0,0,0.05,0,0)" xlink:href="#V"/><use transform="matrix(0.05,0,0,0.05,10.950000000000001,0)" xlink:href="#av"/><use transform="matrix(0.05,0,0,0.05,22.950000000000003,0)" xlink:href="#aw"/><use transform="matrix(0.05,0,0,0.05,34.95,0)" xlink:href="#V"/><use transform="matrix(0.05,0,0,0.05,45.900000000000006,0)" xlink:href="#ae"/><use transform="matrix(0.05,0,0,0.05,51.85,0)" xlink:href="#ao"/><use transform="matrix(0.05,0,0,0.05,61.85,0)" xlink:href="#ag"/><use transform="matrix(0.05,0,0,0.05,71.85000000000001,0)" xlink:href="#ag"/><use transform="matrix(0.05,0,0,0.05,81.85000000000001,0)" xlink:href="#ag"/><use transform="matrix(0.05,0,0,0.05,91.85000000000001,0)" xlink:href="#ag"/><use transform="matrix(0.05,0,0,0.05,101.85000000000001,0)" xlink:href="#ah"/></g><g id="w"><use transform="matrix(0.05,0,0,0.05,0,0)" xlink:href="#ac"/><use transform="matrix(0.05,0,0,0.05,12.950000000000001,0)" xlink:href="#an"/><use transform="matrix(0.05,0,0,0.05,22.950000000000003,0)" xlink:href="#Y"/><use transform="matrix(0.05,0,0,0.05,37.900000000000006,0)" xlink:href="#Y"/><use transform="matrix(0.05,0,0,0.05,52.85,0)" xlink:href="#L"/><use transform="matrix(0.05,0,0,0.05,62.85,0)" xlink:href="#W"/><use transform="matrix(0.05,0,0,0.05,72.85000000000001,0)" xlink:href="#ar"/></g><path d="M68-38c1 34 0 65-14 84H32c9-13 17-26 17-46H33v-38h35" id="ax"/><g id="x"><use transform="matrix(0.05,0,0,0.05,0,0)" xlink:href="#N"/><use transform="matrix(0.05,0,0,0.05,12,0)" xlink:href="#O"/><use transform="matrix(0.05,0,0,0.05,24,0)" xlink:href="#ax"/><use transform="matrix(0.05,0,0,0.05,29,0)" xlink:href="#as"/><use transform="matrix(0.05,0,0,0.05,39.95,0)" xlink:href="#O"/></g><g id="y"><use transform="matrix(0.05,0,0,0.05,0,0)" xlink:href="#al"/><use transform="matrix(0.05,0,0,0.05,10,0)" xlink:href="#an"/><use transform="matrix(0.05,0,0,0.05,20,0)" xlink:href="#K"/><use transform="matrix(0.05,0,0,0.05,29,0)" xlink:href="#ar"/><use transform="matrix(0.05,0,0,0.05,34,0)" xlink:href="#Q"/><use transform="matrix(0.05,0,0,0.05,44,0)" xlink:href="#R"/><use transform="matrix(0.05,0,0,0.05,47.95,0)" xlink:href="#S"/></g><path fill="#24292e" d="M385-1193v494h676v158H385V0H194v-1349h891v156H385" id="ay"/><path fill="#24292e" d="M839-1102c70 0 148 7 206 17v167c-112-18-268-36-363 15-129 69-208 203-208 395V0H294c-10-367 32-789-52-1082h171c21 75 41 161 48 250h5c67-152 152-270 373-270" id="az"/><path fill="#24292e" d="M745-142h380V0H143v-142h422v-798H246v-142h499v940zM545-1292v-192h200v192H545" id="aA"/><path fill="#24292e" d="M617-1102c355 0 481 238 477 599H322c5 222 84 388 301 388 144 0 244-59 284-166l158 45C1002-72 854 20 623 20c-342 0-490-220-490-568 0-346 151-554 484-554zm291 461c-18-192-90-328-289-328-194 0-287 128-295 328h584" id="aB"/><path fill="#24292e" d="M706-1102c241 0 344 136 343 381V0H868v-695c1-168-57-273-220-268-190 6-283 138-283 336V0H185c-3-360 6-732-6-1082h170c4 54 7 126 8 185h3c63-121 164-204 346-205" id="aC"/><path fill="#24292e" d="M865-914c-3-187-2-380-2-570h180v1261c0 76 1 155 6 223H877c-8-49-9-116-10-174h-5C801-44 708 26 530 26c-135 0-234-46-297-139s-95-232-95-419c0-377 131-566 392-566 176 0 271 63 335 184zm-286-51c-222 0-255 197-255 427 0 229 31 425 253 425 237 0 286-195 286-441 0-238-52-411-284-411" id="aD"/><path fill="#24292e" d="M873-819c-18-114-119-146-250-146-163 0-245 50-245 151 0 151 170 148 294 185 182 54 388 94 388 320 0 240-189 325-439 329-245 4-410-69-454-268l159-31c24 133 136 168 295 165 144-2 270-31 270-171 0-164-195-160-331-202-167-52-350-87-350-299 0-218 173-315 413-313 220 2 373 77 412 260" id="aE"/><path fill="#24292e" d="M648-963c-190 6-283 138-283 336V0H185v-1484h181c-2 197 6 404-9 587h3c62-120 159-205 339-205 242 0 351 135 350 381V0H868v-695c1-168-57-273-220-268" id="aF"/><path fill="#24292e" d="M698-1104c312 3 392 244 392 558 0 315-82 566-392 566-169 0-277-65-331-184h-5c8 188 2 394 4 589H185V-858c0-76-1-156-6-224h175c6 52 9 120 10 178h4c58-122 150-202 330-200zm-49 991c225 0 255-203 255-433 0-225-32-419-253-419-236 0-285 192-285 441 0 237 53 411 283 411" id="aG"/><g id="z"><use transform="matrix(0.0077473958333333336,0,0,0.0077473958333333336,0,0)" xlink:href="#ay"/><use transform="matrix(0.0077473958333333336,0,0,0.0077473958333333336,9.521549479166667,0)" xlink:href="#az"/><use transform="matrix(0.0077473958333333336,0,0,0.0077473958333333336,19.043098958333335,0)" xlink:href="#aA"/><use transform="matrix(0.0077473958333333336,0,0,0.0077473958333333336,28.564648437500004,0)" xlink:href="#aB"/><use transform="matrix(0.0077473958333333336,0,0,0.0077473958333333336,38.08619791666667,0)" xlink:href="#aC"/><use transform="matrix(0.0077473958333333336,0,0,0.0077473958333333336,47.607747395833336,0)" xlink:href="#aD"/><use transform="matrix(0.0077473958333333336,0,0,0.0077473958333333336,57.129296875,0)" xlink:href="#aE"/><use transform="matrix(0.0077473958333333336,0,0,0.0077473958333333336,66.65084635416667,0)" xlink:href="#aF"/><use transform="matrix(0.0077473958333333336,0,0,0.0077473958333333336,76.17239583333334,0)" xlink:href="#aA"/><use transform="matrix(0.0077473958333333336,0,0,0.0077473958333333336,85.6939453125,0)" xlink:href="#aG"/></g><g id="A"><use transform="matrix(0.05,0,0,0.05,0,0)" xlink:href="#N"/><use transform="matrix(0.05,0,0,0.05,12,0)" xlink:href="#O"/><use transform="matrix(0.05,0,0,0.05,24,0)" xlink:href="#ax"/><use transform="matrix(0.05,0,0,0.05,29,0)" xlink:href="#as"/><use transform="matrix(0.05,0,0,0.05,39.95,0)" xlink:href="#O"/></g><g id="B"><use transform="matrix(0.05,0,0,0.05,0,0)" xlink:href="#ai"/><use transform="matrix(0.05,0,0,0.05,5,0)" xlink:href="#M"/><use transform="matrix(0.05,0,0,0.05,10.95,0)" xlink:href="#R"/><use transform="matrix(0.05,0,0,0.05,14.899999999999999,0)" xlink:href="#L"/><use transform="matrix(0.05,0,0,0.05,24.9,0)" xlink:href="#W"/><use transform="matrix(0.05,0,0,0.05,34.9,0)" xlink:href="#S"/><use transform="matrix(0.05,0,0,0.05,44.9,0)" xlink:href="#Q"/><use transform="matrix(0.05,0,0,0.05,54.900000000000006,0)" xlink:href="#R"/><use transform="matrix(0.05,0,0,0.05,58.85,0)" xlink:href="#S"/></g><g id="C"><use transform="matrix(0.05,0,0,0.05,0,0)" xlink:href="#K"/><use transform="matrix(0.05,0,0,0.05,9,0)" xlink:href="#ar"/><use transform="matrix(0.05,0,0,0.05,14,0)" xlink:href="#X"/><use transform="matrix(0.05,0,0,0.05,24,0)" xlink:href="#ar"/><use transform="matrix(0.05,0,0,0.05,29,0)" xlink:href="#P"/><use transform="matrix(0.05,0,0,0.05,39,0)" xlink:href="#K"/></g><path d="M160-131c35 5 61 23 61 61C221 17 115-2 30 0v-248c76 3 177-17 177 60 0 33-19 50-47 57zm-97-11c50-1 110 9 110-42 0-47-63-36-110-37v79zm0 115c55-2 124 14 124-45 0-56-70-42-124-44v89" id="aH"/><path d="M140-251c81 0 123 46 123 126C263-46 219 4 140 4 59 4 17-45 17-125s42-126 123-126zm0 227c63 0 89-41 89-101s-29-99-89-99c-61 0-89 39-89 99S79-25 140-24" id="aI"/><path d="M30 0v-248h33v221h125V0H30" id="aJ"/><g id="D"><use transform="matrix(0.05,0,0,0.05,0,0)" xlink:href="#aH"/><use transform="matrix(0.05,0,0,0.05,12,0)" xlink:href="#aI"/><use transform="matrix(0.05,0,0,0.05,26,0)" xlink:href="#aI"/><use transform="matrix(0.05,0,0,0.05,40,0)" xlink:href="#aJ"/></g><path d="M143 0L79-87 56-68V0H24v-261h32v163l83-92h37l-77 82L181 0h-38" id="aK"/><g id="E"><use transform="matrix(0.05,0,0,0.05,0,0)" xlink:href="#aJ"/><use transform="matrix(0.05,0,0,0.05,10,0)" xlink:href="#R"/><use transform="matrix(0.05,0,0,0.05,13.949999999999998,0)" xlink:href="#aK"/><use transform="matrix(0.05,0,0,0.05,22.95,0)" xlink:href="#L"/></g><g id="F"><use transform="matrix(0.05,0,0,0.05,0,0)" xlink:href="#N"/><use transform="matrix(0.05,0,0,0.05,12,0)" xlink:href="#O"/><use transform="matrix(0.05,0,0,0.05,24,0)" xlink:href="#ax"/><use transform="matrix(0.05,0,0,0.05,29,0)" xlink:href="#as"/><use transform="matrix(0.05,0,0,0.05,39.95,0)" xlink:href="#O"/></g><g id="G"><use transform="matrix(0.05,0,0,0.05,0,0)" xlink:href="#P"/><use transform="matrix(0.05,0,0,0.05,10,0)" xlink:href="#K"/><use transform="matrix(0.05,0,0,0.05,19,0)" xlink:href="#L"/><use transform="matrix(0.05,0,0,0.05,29,0)" xlink:href="#M"/><use transform="matrix(0.05,0,0,0.05,34.95,0)" xlink:href="#Q"/><use transform="matrix(0.05,0,0,0.05,44.95,0)" xlink:href="#R"/><use transform="matrix(0.05,0,0,0.05,48.900000000000006,0)" xlink:href="#S"/></g><g id="H"><use transform="matrix(0.05,0,0,0.05,0,0)" xlink:href="#T"/><use transform="matrix(0.05,0,0,0.05,5,0)" xlink:href="#U"/><use transform="matrix(0.05,0,0,0.05,17.950000000000003,0)" xlink:href="#V"/></g><g id="I"><use transform="matrix(0.05,0,0,0.05,0,0)" xlink:href="#al"/><use transform="matrix(0.05,0,0,0.05,10,0)" xlink:href="#an"/><use transform="matrix(0.05,0,0,0.05,20,0)" xlink:href="#K"/><use transform="matrix(0.05,0,0,0.05,29,0)" xlink:href="#ar"/><use transform="matrix(0.05,0,0,0.05,34,0)" xlink:href="#Q"/><use transform="matrix(0.05,0,0,0.05,44,0)" xlink:href="#R"/><use transform="matrix(0.05,0,0,0.05,47.95,0)" xlink:href="#S"/></g></defs></g></svg>