<svg xmlns="http://www.w3.org/2000/svg" xmlns:xlink="http://www.w3.org/1999/xlink" xmlns:lucid="lucid" width="624" height="1048"><g transform="translate(8 8)" lucid:page-tab-id="0_0"><path d="M0 0h1120v1414.4H0z" fill="#fff"/><path d="M202 265c0-2.76 2.24-5 5-5h365c2.76 0 5 2.24 5 5v222c0 2.76-2.24 5-5 5H207c-2.76 0-5-2.24-5-5z" fill="#fff"/><path d="M202 260h375v40H202z" fill="#ccc"/><path d="M202 265c0-2.76 2.24-5 5-5h365c2.76 0 5 2.24 5 5v222c0 2.76-2.24 5-5 5H207c-2.76 0-5-2.24-5-5zM202 300h375M262 300v192M419.5 300v192" stroke="#3d4752" stroke-width="2" fill="none"/><use xlink:href="#a" transform="matrix(1,0,0,1,212,260) translate(158.55 23.6)"/><use xlink:href="#b" transform="matrix(1,0,0,1,207,302.5) translate(13 17.1)"/><use xlink:href="#c" transform="matrix(1,0,0,1,267,302.5) translate(0 17.1)"/><use xlink:href="#d" transform="matrix(1,0,0,1,424.5,302.5) translate(0 17.1)"/><use xlink:href="#e" transform="matrix(1,0,0,1,267,334.5) translate(0 17.1)"/><use xlink:href="#f" transform="matrix(1,0,0,1,424.5,334.5) translate(0 17.1)"/><use xlink:href="#g" transform="matrix(1,0,0,1,267,366.5) translate(0 17.1)"/><use xlink:href="#h" transform="matrix(1,0,0,1,424.5,366.5) translate(0 17.1)"/><use xlink:href="#i" transform="matrix(1,0,0,1,267,398.5) translate(0 17.1)"/><use xlink:href="#h" transform="matrix(1,0,0,1,424.5,398.5) translate(0 17.1)"/><use xlink:href="#j" transform="matrix(1,0,0,1,267,430.5) translate(0 17.1)"/><use xlink:href="#k" transform="matrix(1,0,0,1,424.5,430.5) translate(0 17.1)"/><use xlink:href="#l" transform="matrix(1,0,0,1,267,462.5) translate(0 17.1)"/><use xlink:href="#m" transform="matrix(1,0,0,1,424.5,462.5) translate(0 17.1)"/><path d="M239 889c0-2.76 2.24-5 5-5h310c2.76 0 5 2.24 5 5v126c0 2.76-2.24 5-5 5H244c-2.76 0-5-2.24-5-5z" fill="#fff"/><path d="M239 884h320v40H239z" fill="#ccc"/><path d="M239 889c0-2.76 2.24-5 5-5h310c2.76 0 5 2.24 5 5v126c0 2.76-2.24 5-5 5H244c-2.76 0-5-2.24-5-5zM239 924h320M299 924v96M429 924v96" stroke="#3d4752" stroke-width="2" fill="none"/><use xlink:href="#n" transform="matrix(1,0,0,1,249,884) translate(132 23.6)"/><use xlink:href="#b" transform="matrix(1,0,0,1,244,926.5) translate(13 17.1)"/><use xlink:href="#o" transform="matrix(1,0,0,1,304,926.5) translate(0 17.1)"/><use xlink:href="#d" transform="matrix(1,0,0,1,434,926.5) translate(0 17.1)"/><use xlink:href="#p" transform="matrix(1,0,0,1,304,958.5) translate(0 17.1)"/><use xlink:href="#h" transform="matrix(1,0,0,1,434,958.5) translate(0 17.1)"/><use xlink:href="#q" transform="matrix(1,0,0,1,304,990.5) translate(0 17.1)"/><use xlink:href="#r" transform="matrix(1,0,0,1,434,990.5) translate(0 17.1)"/><path d="M312 609c0-2.76 2.24-5 5-5h270c2.76 0 5 2.24 5 5v158c0 2.76-2.24 5-5 5H317c-2.76 0-5-2.24-5-5z" fill="#fff"/><path d="M312 604h280v40H312z" fill="#ccc"/><path d="M312 609c0-2.76 2.24-5 5-5h270c2.76 0 5 2.24 5 5v158c0 2.76-2.24 5-5 5H317c-2.76 0-5-2.24-5-5zM312 644h280M372 644v128M482 644v128" stroke="#3d4752" stroke-width="2" fill="none"/><use xlink:href="#s" transform="matrix(1,0,0,1,322,604) translate(91.07499999999999 23.6)"/><use xlink:href="#b" transform="matrix(1,0,0,1,317,646.5) translate(13 17.1)"/><use xlink:href="#t" transform="matrix(1,0,0,1,377,646.5) translate(0 17.1)"/><use xlink:href="#d" transform="matrix(1,0,0,1,487,646.5) translate(0 17.1)"/><use xlink:href="#q" transform="matrix(1,0,0,1,377,678.5) translate(0 17.1)"/><use xlink:href="#r" transform="matrix(1,0,0,1,487,678.5) translate(0 17.1)"/><use xlink:href="#u" transform="matrix(1,0,0,1,317,710.5) translate(13.524999999999999 17.1)"/><use xlink:href="#c" transform="matrix(1,0,0,1,377,710.5) translate(0 17.1)"/><use xlink:href="#d" transform="matrix(1,0,0,1,487,710.5) translate(0 17.1)"/><use xlink:href="#u" transform="matrix(1,0,0,1,317,742.5) translate(13.524999999999999 17.1)"/><use xlink:href="#o" transform="matrix(1,0,0,1,377,742.5) translate(0 17.1)"/><use xlink:href="#d" transform="matrix(1,0,0,1,487,742.5) translate(0 17.1)"/><path d="M214 17c0-2.76 2.24-5 5-5h330c2.76 0 5 2.24 5 5v126c0 2.76-2.24 5-5 5H219c-2.76 0-5-2.24-5-5z" fill="#fff"/><path d="M214 12h340v40H214z" fill="#ccc"/><path d="M214 17c0-2.76 2.24-5 5-5h330c2.76 0 5 2.24 5 5v126c0 2.76-2.24 5-5 5H219c-2.76 0-5-2.24-5-5zM214 52h340M274 52v96M414 52v96" stroke="#3d4752" stroke-width="2" fill="none"/><use xlink:href="#v" transform="matrix(1,0,0,1,224,12) translate(110.6 23.6)"/><use xlink:href="#w" transform="matrix(1,0,0,1,219,54.5) translate(-0.9750000000000014 17.1)"/><use xlink:href="#c" transform="matrix(1,0,0,1,279,54.5) translate(0 17.1)"/><use xlink:href="#d" transform="matrix(1,0,0,1,419,54.5) translate(0 17.1)"/><use xlink:href="#w" transform="matrix(1,0,0,1,219,86.5) translate(-0.9750000000000014 17.1)"/><use xlink:href="#x" transform="matrix(1,0,0,1,279,86.5) translate(0 17.1)"/><use xlink:href="#d" transform="matrix(1,0,0,1,419,86.5) translate(0 17.1)"/><use xlink:href="#y" transform="matrix(1,0,0,1,279,118.5) translate(0 17.1)"/><use xlink:href="#z" transform="matrix(1,0,0,1,419,118.5) translate(0 17.1)"/><path d="M12 641c0-2.76 2.24-5 5-5h210c2.76 0 5 2.24 5 5v94c0 2.76-2.24 5-5 5H17c-2.76 0-5-2.24-5-5z" fill="#fff"/><path d="M12 636h220v40H12z" fill="#ccc"/><path d="M12 641c0-2.76 2.24-5 5-5h210c2.76 0 5 2.24 5 5v94c0 2.76-2.24 5-5 5H17c-2.76 0-5-2.24-5-5zM12 676h220M72 676v64M152 676v64" stroke="#3d4752" stroke-width="2" fill="none"/><use xlink:href="#A" transform="matrix(1,0,0,1,22,636) translate(0 23.6)"/><use xlink:href="#B" transform="matrix(1,0,0,1,17,678.5) translate(0 17.1)"/><use xlink:href="#C" transform="matrix(1,0,0,1,77,678.5) translate(0 17.1)"/><use xlink:href="#D" transform="matrix(1,0,0,1,157,678.5) translate(0 17.1)"/><use xlink:href="#B" transform="matrix(1,0,0,1,17,710.5) translate(0 17.1)"/><use xlink:href="#E" transform="matrix(1,0,0,1,77,710.5) translate(0 17.1)"/><use xlink:href="#D" transform="matrix(1,0,0,1,157,710.5) translate(0 17.1)"/><path d="M326.46 513v30c0 2.76-2.24 5-5 5H127c-2.76 0-5 2.24-5 5v63.18" stroke="#999" stroke-width="2" fill="none"/><path d="M316.46 503h20M326.46 493v20M316.46 513h20M112 634.55l10-20 10 20M122 634.55v-20" stroke="#999" stroke-width="2" fill="#fff"/><path d="M452.54 513v34.73c0 .15-.12.27-.27.27-.15 0-.27.12-.27.27V564" stroke="#999" stroke-width="2" fill="none"/><path d="M442.54 503h20M452.54 493v20M442.54 513h20M442 602.55l10-20 10 20M452 602.55v-20M462 572.55c0 5.53-4.48 10-10 10s-10-4.47-10-10c0-5.52 4.48-10 10-10s10 4.48 10 10" stroke="#999" stroke-width="2" fill="#fff"/><path d="M122 780v43c0 2.76 2.24 5 5 5h212.88c2.76 0 5 2.24 5 5v11" stroke="#999" stroke-width="2" fill="none"/><path d="M132 741.45l-10 20-10-20M122 741.45v20M132 771.45c0 5.52-4.48 10-10 10s-10-4.48-10-10c0-5.53 4.48-10 10-10s10 4.47 10 10M354.88 873h-20M344.88 883v-20M354.88 853c0 5.52-4.47 10-10 10-5.52 0-10-4.48-10-10s4.48-10 10-10c5.53 0 10 4.48 10 10" stroke="#999" stroke-width="2" fill="#fff"/><path d="M452 812v15.44c0 .3.25.56.56.56.3 0 .56.25.56.56V863" stroke="#999" stroke-width="2" fill="none"/><path d="M462 773.45l-10 20-10-20M452 773.45v20M462 803.45c0 5.52-4.48 10-10 10s-10-4.48-10-10c0-5.53 4.48-10 10-10s10 4.47 10 10M463.12 873h-20M453.12 883v-20M463.12 863h-20" stroke="#999" stroke-width="2" fill="#fff"/><path d="M326.5 188v15.98s0 .02-.02.02c0 0-.02 0-.02.02V239" stroke="#999" stroke-width="2" fill="none"/><path d="M336.5 149.45l-10 20-10-20M326.5 149.45v20M336.5 179.45c0 5.52-4.48 10-10 10s-10-4.48-10-10c0-5.53 4.48-10 10-10s10 4.47 10 10M336.46 249h-20M326.46 259v-20M336.46 239h-20" stroke="#999" stroke-width="2" fill="#fff"/><path d="M441.5 188v11c0 2.76 2.24 5 5 5h1.04c2.76 0 5 2.24 5 5v30" stroke="#999" stroke-width="2" fill="none"/><path d="M451.5 149.45l-10 20-10-20M441.5 149.45v20M451.5 179.45c0 5.52-4.48 10-10 10s-10-4.48-10-10c0-5.53 4.48-10 10-10s10 4.47 10 10M462.54 249h-20M452.54 259v-20M462.54 239h-20" stroke="#999" stroke-width="2" fill="#fff"/><defs><path d="M232-93c-1 65-40 97-104 97C67 4 28-28 28-90v-158h33c8 89-33 224 67 224 102 0 64-133 71-224h33v155" id="F"/><path d="M135-143c-3-34-86-38-87 0 15 53 115 12 119 90S17 21 10-45l28-5c4 36 97 45 98 0-10-56-113-15-118-90-4-57 82-63 122-42 12 7 21 19 24 35" id="G"/><path d="M100-194c63 0 86 42 84 106H49c0 40 14 67 53 68 26 1 43-12 49-29l28 8c-11 28-37 45-77 45C44 4 14-33 15-96c1-61 26-98 85-98zm52 81c6-60-76-77-97-28-3 7-6 17-6 28h103" id="H"/><path d="M114-163C36-179 61-72 57 0H25l-1-190h30c1 12-1 29 2 39 6-27 23-49 58-41v29" id="I"/><g id="a"><use transform="matrix(0.05,0,0,0.05,0,0)" xlink:href="#F"/><use transform="matrix(0.05,0,0,0.05,12.950000000000001,0)" xlink:href="#G"/><use transform="matrix(0.05,0,0,0.05,21.950000000000003,0)" xlink:href="#H"/><use transform="matrix(0.05,0,0,0.05,31.950000000000003,0)" xlink:href="#I"/></g><path d="M30-248c87 1 191-15 191 75 0 78-77 80-158 76V0H30v-248zm33 125c57 0 124 11 124-50 0-59-68-47-124-48v98" id="J"/><path d="M194 0L95-120 63-95V0H30v-248h33v124l119-124h40L117-140 236 0h-42" id="K"/><g id="b"><use transform="matrix(0.05,0,0,0.05,0,0)" xlink:href="#J"/><use transform="matrix(0.05,0,0,0.05,12,0)" xlink:href="#K"/></g><path d="M84 4C-5 8 30-112 23-190h32v120c0 31 7 50 39 49 72-2 45-101 50-169h31l1 190h-30c-1-10 1-25-2-33-11 22-28 36-60 37" id="L"/><path d="M-5 72V49h209v23H-5" id="M"/><path d="M24-231v-30h32v30H24zM24 0v-190h32V0H24" id="N"/><path d="M85-194c31 0 48 13 60 33l-1-100h32l1 261h-30c-2-10 0-23-3-31C134-8 116 4 85 4 32 4 16-35 15-94c0-66 23-100 70-100zm9 24c-40 0-46 34-46 75 0 40 6 74 45 74 42 0 51-32 51-76 0-42-9-74-50-73" id="O"/><g id="c"><use transform="matrix(0.05,0,0,0.05,0,0)" xlink:href="#L"/><use transform="matrix(0.05,0,0,0.05,10,0)" xlink:href="#G"/><use transform="matrix(0.05,0,0,0.05,19,0)" xlink:href="#H"/><use transform="matrix(0.05,0,0,0.05,29,0)" xlink:href="#I"/><use transform="matrix(0.05,0,0,0.05,34.95,0)" xlink:href="#M"/><use transform="matrix(0.05,0,0,0.05,44.95,0)" xlink:href="#N"/><use transform="matrix(0.05,0,0,0.05,48.900000000000006,0)" xlink:href="#O"/></g><path d="M33 0v-248h34V0H33" id="P"/><path d="M190 0L58-211 59 0H30v-248h39L202-35l-2-213h31V0h-41" id="Q"/><path d="M127-220V0H93v-220H8v-28h204v28h-85" id="R"/><g id="d"><use transform="matrix(0.05,0,0,0.05,0,0)" xlink:href="#P"/><use transform="matrix(0.05,0,0,0.05,5,0)" xlink:href="#Q"/><use transform="matrix(0.05,0,0,0.05,17.950000000000003,0)" xlink:href="#R"/></g><path d="M117-194c89-4 53 116 60 194h-32v-121c0-31-8-49-39-48C34-167 62-67 57 0H25l-1-190h30c1 10-1 24 2 32 11-22 29-35 61-36" id="S"/><path d="M141-36C126-15 110 5 73 4 37 3 15-17 15-53c-1-64 63-63 125-63 3-35-9-54-41-54-24 1-41 7-42 31l-33-3c5-37 33-52 76-52 45 0 72 20 72 64v82c-1 20 7 32 28 27v20c-31 9-61-2-59-35zM48-53c0 20 12 33 32 33 41-3 63-29 60-74-43 2-92-5-92 41" id="T"/><path d="M210-169c-67 3-38 105-44 169h-31v-121c0-29-5-50-35-48C34-165 62-65 56 0H25l-1-190h30c1 10-1 24 2 32 10-44 99-50 107 0 11-21 27-35 58-36 85-2 47 119 55 194h-31v-121c0-29-5-49-35-48" id="U"/><g id="e"><use transform="matrix(0.05,0,0,0.05,0,0)" xlink:href="#L"/><use transform="matrix(0.05,0,0,0.05,10,0)" xlink:href="#G"/><use transform="matrix(0.05,0,0,0.05,19,0)" xlink:href="#H"/><use transform="matrix(0.05,0,0,0.05,29,0)" xlink:href="#I"/><use transform="matrix(0.05,0,0,0.05,34.95,0)" xlink:href="#S"/><use transform="matrix(0.05,0,0,0.05,44.95,0)" xlink:href="#T"/><use transform="matrix(0.05,0,0,0.05,54.95,0)" xlink:href="#U"/><use transform="matrix(0.05,0,0,0.05,69.9,0)" xlink:href="#H"/></g><path d="M137 0h-34L2-248h35l83 218 83-218h36" id="V"/><path d="M205 0l-28-72H64L36 0H1l101-248h38L239 0h-34zm-38-99l-47-123c-12 45-31 82-46 123h93" id="W"/><path d="M233-177c-1 41-23 64-60 70L243 0h-38l-65-103H63V0H30v-248c88 3 205-21 203 71zM63-129c60-2 137 13 137-47 0-61-80-42-137-45v92" id="X"/><path d="M212-179c-10-28-35-45-73-45-59 0-87 40-87 99 0 60 29 101 89 101 43 0 62-24 78-52l27 14C228-24 195 4 139 4 59 4 22-46 18-125c-6-104 99-153 187-111 19 9 31 26 39 46" id="Y"/><path d="M197 0v-115H63V0H30v-248h33v105h134v-105h34V0h-34" id="Z"/><path d="M87 75C49 33 22-17 22-94c0-76 28-126 65-167h31c-38 41-64 92-64 168S80 34 118 75H87" id="aa"/><path d="M155-56V0h-30v-56H8v-25l114-167h33v167h35v25h-35zm-30-156c-27 46-58 90-88 131h88v-131" id="ab"/><path d="M101-251c68 0 85 55 85 127S166 4 100 4C33 4 14-52 14-124c0-73 17-127 87-127zm-1 229c47 0 54-49 54-102s-4-102-53-102c-51 0-55 48-55 102 0 53 5 102 54 102" id="ac"/><path d="M33-261c38 41 65 92 65 168S71 34 33 75H2C39 34 66-17 66-93S39-220 2-261h31" id="ad"/><g id="f"><use transform="matrix(0.05,0,0,0.05,0,0)" xlink:href="#V"/><use transform="matrix(0.05,0,0,0.05,10.65,0)" xlink:href="#W"/><use transform="matrix(0.05,0,0,0.05,22.65,0)" xlink:href="#X"/><use transform="matrix(0.05,0,0,0.05,35.6,0)" xlink:href="#Y"/><use transform="matrix(0.05,0,0,0.05,48.550000000000004,0)" xlink:href="#Z"/><use transform="matrix(0.05,0,0,0.05,61.5,0)" xlink:href="#W"/><use transform="matrix(0.05,0,0,0.05,73.5,0)" xlink:href="#X"/><use transform="matrix(0.05,0,0,0.05,86.45,0)" xlink:href="#aa"/><use transform="matrix(0.05,0,0,0.05,92.4,0)" xlink:href="#ab"/><use transform="matrix(0.05,0,0,0.05,102.4,0)" xlink:href="#ac"/><use transform="matrix(0.05,0,0,0.05,112.4,0)" xlink:href="#ad"/></g><path d="M101-234c-31-9-42 10-38 44h38v23H63V0H32v-167H5v-23h27c-7-52 17-82 69-68v24" id="ae"/><path d="M24 0v-261h32V0H24" id="af"/><g id="g"><use transform="matrix(0.05,0,0,0.05,0,0)" xlink:href="#ae"/><use transform="matrix(0.05,0,0,0.05,5,0)" xlink:href="#L"/><use transform="matrix(0.05,0,0,0.05,15,0)" xlink:href="#af"/><use transform="matrix(0.05,0,0,0.05,18.95,0)" xlink:href="#af"/><use transform="matrix(0.05,0,0,0.05,22.9,0)" xlink:href="#S"/><use transform="matrix(0.05,0,0,0.05,32.9,0)" xlink:href="#T"/><use transform="matrix(0.05,0,0,0.05,42.9,0)" xlink:href="#U"/><use transform="matrix(0.05,0,0,0.05,57.85,0)" xlink:href="#H"/></g><path d="M54-142c48-35 137-8 131 61C196 18 31 33 14-55l32-4c7 23 22 37 52 37 35-1 51-22 54-58 4-55-73-65-99-34H22l8-134h141v27H59" id="ag"/><g id="h"><use transform="matrix(0.05,0,0,0.05,0,0)" xlink:href="#V"/><use transform="matrix(0.05,0,0,0.05,10.65,0)" xlink:href="#W"/><use transform="matrix(0.05,0,0,0.05,22.65,0)" xlink:href="#X"/><use transform="matrix(0.05,0,0,0.05,35.6,0)" xlink:href="#Y"/><use transform="matrix(0.05,0,0,0.05,48.550000000000004,0)" xlink:href="#Z"/><use transform="matrix(0.05,0,0,0.05,61.5,0)" xlink:href="#W"/><use transform="matrix(0.05,0,0,0.05,73.5,0)" xlink:href="#X"/><use transform="matrix(0.05,0,0,0.05,86.45,0)" xlink:href="#aa"/><use transform="matrix(0.05,0,0,0.05,92.4,0)" xlink:href="#ag"/><use transform="matrix(0.05,0,0,0.05,102.4,0)" xlink:href="#ac"/><use transform="matrix(0.05,0,0,0.05,112.4,0)" xlink:href="#ad"/></g><g id="i"><use transform="matrix(0.05,0,0,0.05,0,0)" xlink:href="#H"/><use transform="matrix(0.05,0,0,0.05,10,0)" xlink:href="#U"/><use transform="matrix(0.05,0,0,0.05,24.950000000000003,0)" xlink:href="#T"/><use transform="matrix(0.05,0,0,0.05,34.95,0)" xlink:href="#N"/><use transform="matrix(0.05,0,0,0.05,38.900000000000006,0)" xlink:href="#af"/></g><path d="M115-194c55 1 70 41 70 98S169 2 115 4C84 4 66-9 55-30l1 105H24l-1-265h31l2 30c10-21 28-34 59-34zm-8 174c40 0 45-34 45-75s-6-73-45-74c-42 0-51 32-51 76 0 43 10 73 51 73" id="ah"/><path d="M206 0h-36l-40-164L89 0H53L-1-190h32L70-26l43-164h34l41 164 42-164h31" id="ai"/><path d="M100-194c62-1 85 37 85 99 1 63-27 99-86 99S16-35 15-95c0-66 28-99 85-99zM99-20c44 1 53-31 53-75 0-43-8-75-51-75s-53 32-53 75 10 74 51 75" id="aj"/><g id="j"><use transform="matrix(0.05,0,0,0.05,0,0)" xlink:href="#ah"/><use transform="matrix(0.05,0,0,0.05,10,0)" xlink:href="#T"/><use transform="matrix(0.05,0,0,0.05,20,0)" xlink:href="#G"/><use transform="matrix(0.05,0,0,0.05,29,0)" xlink:href="#G"/><use transform="matrix(0.05,0,0,0.05,38,0)" xlink:href="#ai"/><use transform="matrix(0.05,0,0,0.05,50.95,0)" xlink:href="#aj"/><use transform="matrix(0.05,0,0,0.05,60.95,0)" xlink:href="#I"/><use transform="matrix(0.05,0,0,0.05,66.9,0)" xlink:href="#O"/></g><path d="M27 0v-27h64v-190l-56 39v-29l58-41h29v221h61V0H27" id="ak"/><g id="k"><use transform="matrix(0.05,0,0,0.05,0,0)" xlink:href="#V"/><use transform="matrix(0.05,0,0,0.05,10.65,0)" xlink:href="#W"/><use transform="matrix(0.05,0,0,0.05,22.65,0)" xlink:href="#X"/><use transform="matrix(0.05,0,0,0.05,35.6,0)" xlink:href="#Y"/><use transform="matrix(0.05,0,0,0.05,48.550000000000004,0)" xlink:href="#Z"/><use transform="matrix(0.05,0,0,0.05,61.5,0)" xlink:href="#W"/><use transform="matrix(0.05,0,0,0.05,73.5,0)" xlink:href="#X"/><use transform="matrix(0.05,0,0,0.05,86.45,0)" xlink:href="#aa"/><use transform="matrix(0.05,0,0,0.05,92.4,0)" xlink:href="#ak"/><use transform="matrix(0.05,0,0,0.05,102.4,0)" xlink:href="#ac"/><use transform="matrix(0.05,0,0,0.05,112.4,0)" xlink:href="#ac"/><use transform="matrix(0.05,0,0,0.05,122.4,0)" xlink:href="#ad"/></g><path d="M177-190C167-65 218 103 67 71c-23-6-38-20-44-43l32-5c15 47 100 32 89-28v-30C133-14 115 1 83 1 29 1 15-40 15-95c0-56 16-97 71-98 29-1 48 16 59 35 1-10 0-23 2-32h30zM94-22c36 0 50-32 50-73 0-42-14-75-50-75-39 0-46 34-46 75s6 73 46 73" id="al"/><g id="l"><use transform="matrix(0.05,0,0,0.05,0,0)" xlink:href="#ah"/><use transform="matrix(0.05,0,0,0.05,10,0)" xlink:href="#I"/><use transform="matrix(0.05,0,0,0.05,15.949999999999998,0)" xlink:href="#aj"/><use transform="matrix(0.05,0,0,0.05,25.950000000000003,0)" xlink:href="#ae"/><use transform="matrix(0.05,0,0,0.05,30.950000000000003,0)" xlink:href="#N"/><use transform="matrix(0.05,0,0,0.05,34.9,0)" xlink:href="#af"/><use transform="matrix(0.05,0,0,0.05,38.85,0)" xlink:href="#H"/><use transform="matrix(0.05,0,0,0.05,48.85,0)" xlink:href="#M"/><use transform="matrix(0.05,0,0,0.05,58.85,0)" xlink:href="#N"/><use transform="matrix(0.05,0,0,0.05,62.800000000000004,0)" xlink:href="#U"/><use transform="matrix(0.05,0,0,0.05,77.75,0)" xlink:href="#T"/><use transform="matrix(0.05,0,0,0.05,87.75,0)" xlink:href="#al"/><use transform="matrix(0.05,0,0,0.05,97.75,0)" xlink:href="#H"/><use transform="matrix(0.05,0,0,0.05,107.75,0)" xlink:href="#M"/><use transform="matrix(0.05,0,0,0.05,117.75,0)" xlink:href="#L"/><use transform="matrix(0.05,0,0,0.05,127.75,0)" xlink:href="#I"/><use transform="matrix(0.05,0,0,0.05,133.7,0)" xlink:href="#af"/></g><path d="M101-251c82-7 93 87 43 132L82-64C71-53 59-42 53-27h129V0H18c2-99 128-94 128-182 0-28-16-43-45-43s-46 15-49 41l-32-3c6-41 34-60 81-64" id="am"/><g id="m"><use transform="matrix(0.05,0,0,0.05,0,0)" xlink:href="#V"/><use transform="matrix(0.05,0,0,0.05,10.65,0)" xlink:href="#W"/><use transform="matrix(0.05,0,0,0.05,22.65,0)" xlink:href="#X"/><use transform="matrix(0.05,0,0,0.05,35.6,0)" xlink:href="#Y"/><use transform="matrix(0.05,0,0,0.05,48.550000000000004,0)" xlink:href="#Z"/><use transform="matrix(0.05,0,0,0.05,61.5,0)" xlink:href="#W"/><use transform="matrix(0.05,0,0,0.05,73.5,0)" xlink:href="#X"/><use transform="matrix(0.05,0,0,0.05,86.45,0)" xlink:href="#aa"/><use transform="matrix(0.05,0,0,0.05,92.4,0)" xlink:href="#am"/><use transform="matrix(0.05,0,0,0.05,102.4,0)" xlink:href="#ag"/><use transform="matrix(0.05,0,0,0.05,112.4,0)" xlink:href="#ag"/><use transform="matrix(0.05,0,0,0.05,122.4,0)" xlink:href="#ad"/></g><path d="M59-47c-2 24 18 29 38 22v24C64 9 27 4 27-40v-127H5v-23h24l9-43h21v43h35v23H59v120" id="an"/><g id="n"><use transform="matrix(0.05,0,0,0.05,0,0)" xlink:href="#J"/><use transform="matrix(0.05,0,0,0.05,12,0)" xlink:href="#aj"/><use transform="matrix(0.05,0,0,0.05,22,0)" xlink:href="#G"/><use transform="matrix(0.05,0,0,0.05,31,0)" xlink:href="#an"/></g><g id="o"><use transform="matrix(0.05,0,0,0.05,0,0)" xlink:href="#ah"/><use transform="matrix(0.05,0,0,0.05,10,0)" xlink:href="#aj"/><use transform="matrix(0.05,0,0,0.05,20,0)" xlink:href="#G"/><use transform="matrix(0.05,0,0,0.05,29,0)" xlink:href="#an"/><use transform="matrix(0.05,0,0,0.05,34,0)" xlink:href="#M"/><use transform="matrix(0.05,0,0,0.05,44,0)" xlink:href="#N"/><use transform="matrix(0.05,0,0,0.05,47.95,0)" xlink:href="#O"/></g><g id="p"><use transform="matrix(0.05,0,0,0.05,0,0)" xlink:href="#an"/><use transform="matrix(0.05,0,0,0.05,5,0)" xlink:href="#N"/><use transform="matrix(0.05,0,0,0.05,8.95,0)" xlink:href="#an"/><use transform="matrix(0.05,0,0,0.05,13.949999999999998,0)" xlink:href="#af"/><use transform="matrix(0.05,0,0,0.05,17.9,0)" xlink:href="#H"/></g><path d="M115-194c53 0 69 39 70 98 0 66-23 100-70 100C84 3 66-7 56-30L54 0H23l1-261h32v101c10-23 28-34 59-34zm-8 174c40 0 45-34 45-75 0-40-5-75-45-74-42 0-51 32-51 76 0 43 10 73 51 73" id="ao"/><path d="M179-190L93 31C79 59 56 82 12 73V49c39 6 53-20 64-50L1-190h34L92-34l54-156h33" id="ap"/><g id="q"><use transform="matrix(0.05,0,0,0.05,0,0)" xlink:href="#ao"/><use transform="matrix(0.05,0,0,0.05,10,0)" xlink:href="#aj"/><use transform="matrix(0.05,0,0,0.05,20,0)" xlink:href="#O"/><use transform="matrix(0.05,0,0,0.05,30,0)" xlink:href="#ap"/></g><path d="M30 0v-248h187v28H63v79h144v27H63v87h162V0H30" id="aq"/><path d="M195 0l-74-108L45 0H8l94-129-87-119h37l69 98 67-98h37l-84 118L233 0h-38" id="ar"/><g id="r"><use transform="matrix(0.05,0,0,0.05,0,0)" xlink:href="#R"/><use transform="matrix(0.05,0,0,0.05,10.950000000000001,0)" xlink:href="#aq"/><use transform="matrix(0.05,0,0,0.05,22.950000000000003,0)" xlink:href="#ar"/><use transform="matrix(0.05,0,0,0.05,34.95,0)" xlink:href="#R"/><use transform="matrix(0.05,0,0,0.05,45.900000000000006,0)" xlink:href="#aa"/><use transform="matrix(0.05,0,0,0.05,51.85,0)" xlink:href="#ak"/><use transform="matrix(0.05,0,0,0.05,61.85,0)" xlink:href="#ac"/><use transform="matrix(0.05,0,0,0.05,71.85000000000001,0)" xlink:href="#ac"/><use transform="matrix(0.05,0,0,0.05,81.85000000000001,0)" xlink:href="#ac"/><use transform="matrix(0.05,0,0,0.05,91.85000000000001,0)" xlink:href="#ac"/><use transform="matrix(0.05,0,0,0.05,101.85000000000001,0)" xlink:href="#ad"/></g><g id="s"><use transform="matrix(0.05,0,0,0.05,0,0)" xlink:href="#Y"/><use transform="matrix(0.05,0,0,0.05,12.950000000000001,0)" xlink:href="#aj"/><use transform="matrix(0.05,0,0,0.05,22.950000000000003,0)" xlink:href="#U"/><use transform="matrix(0.05,0,0,0.05,37.900000000000006,0)" xlink:href="#U"/><use transform="matrix(0.05,0,0,0.05,52.85,0)" xlink:href="#H"/><use transform="matrix(0.05,0,0,0.05,62.85,0)" xlink:href="#S"/><use transform="matrix(0.05,0,0,0.05,72.85000000000001,0)" xlink:href="#an"/></g><path d="M96-169c-40 0-48 33-48 73s9 75 48 75c24 0 41-14 43-38l32 2c-6 37-31 61-74 61-59 0-76-41-82-99-10-93 101-131 147-64 4 7 5 14 7 22l-32 3c-4-21-16-35-41-35" id="as"/><g id="t"><use transform="matrix(0.05,0,0,0.05,0,0)" xlink:href="#as"/><use transform="matrix(0.05,0,0,0.05,9,0)" xlink:href="#aj"/><use transform="matrix(0.05,0,0,0.05,19,0)" xlink:href="#U"/><use transform="matrix(0.05,0,0,0.05,33.95,0)" xlink:href="#U"/><use transform="matrix(0.05,0,0,0.05,48.900000000000006,0)" xlink:href="#H"/><use transform="matrix(0.05,0,0,0.05,58.900000000000006,0)" xlink:href="#S"/><use transform="matrix(0.05,0,0,0.05,68.9,0)" xlink:href="#an"/><use transform="matrix(0.05,0,0,0.05,73.9,0)" xlink:href="#M"/><use transform="matrix(0.05,0,0,0.05,83.9,0)" xlink:href="#N"/><use transform="matrix(0.05,0,0,0.05,87.85000000000001,0)" xlink:href="#O"/></g><path d="M63-220v92h138v28H63V0H30v-248h175v28H63" id="at"/><g id="u"><use transform="matrix(0.05,0,0,0.05,0,0)" xlink:href="#at"/><use transform="matrix(0.05,0,0,0.05,10.950000000000001,0)" xlink:href="#K"/></g><path d="M106-169C34-169 62-67 57 0H25v-261h32l-1 103c12-21 28-36 61-36 89 0 53 116 60 194h-32v-121c2-32-8-49-39-48" id="au"/><g id="v"><use transform="matrix(0.05,0,0,0.05,0,0)" xlink:href="#X"/><use transform="matrix(0.05,0,0,0.05,12.950000000000001,0)" xlink:href="#H"/><use transform="matrix(0.05,0,0,0.05,22.950000000000003,0)" xlink:href="#af"/><use transform="matrix(0.05,0,0,0.05,26.900000000000002,0)" xlink:href="#T"/><use transform="matrix(0.05,0,0,0.05,36.900000000000006,0)" xlink:href="#an"/><use transform="matrix(0.05,0,0,0.05,41.900000000000006,0)" xlink:href="#N"/><use transform="matrix(0.05,0,0,0.05,45.85000000000001,0)" xlink:href="#aj"/><use transform="matrix(0.05,0,0,0.05,55.85,0)" xlink:href="#S"/><use transform="matrix(0.05,0,0,0.05,65.85000000000001,0)" xlink:href="#G"/><use transform="matrix(0.05,0,0,0.05,74.85000000000001,0)" xlink:href="#au"/><use transform="matrix(0.05,0,0,0.05,84.85000000000001,0)" xlink:href="#N"/><use transform="matrix(0.05,0,0,0.05,88.80000000000001,0)" xlink:href="#ah"/></g><path d="M68-38c1 34 0 65-14 84H32c9-13 17-26 17-46H33v-38h35" id="av"/><g id="w"><use transform="matrix(0.05,0,0,0.05,0,0)" xlink:href="#J"/><use transform="matrix(0.05,0,0,0.05,12,0)" xlink:href="#K"/><use transform="matrix(0.05,0,0,0.05,24,0)" xlink:href="#av"/><use transform="matrix(0.05,0,0,0.05,29,0)" xlink:href="#at"/><use transform="matrix(0.05,0,0,0.05,39.95,0)" xlink:href="#K"/></g><g id="x"><use transform="matrix(0.05,0,0,0.05,0,0)" xlink:href="#ae"/><use transform="matrix(0.05,0,0,0.05,5,0)" xlink:href="#aj"/><use transform="matrix(0.05,0,0,0.05,15,0)" xlink:href="#af"/><use transform="matrix(0.05,0,0,0.05,18.95,0)" xlink:href="#af"/><use transform="matrix(0.05,0,0,0.05,22.9,0)" xlink:href="#aj"/><use transform="matrix(0.05,0,0,0.05,32.9,0)" xlink:href="#ai"/><use transform="matrix(0.05,0,0,0.05,45.85,0)" xlink:href="#N"/><use transform="matrix(0.05,0,0,0.05,49.800000000000004,0)" xlink:href="#S"/><use transform="matrix(0.05,0,0,0.05,59.800000000000004,0)" xlink:href="#al"/><use transform="matrix(0.05,0,0,0.05,69.80000000000001,0)" xlink:href="#M"/><use transform="matrix(0.05,0,0,0.05,79.80000000000001,0)" xlink:href="#N"/><use transform="matrix(0.05,0,0,0.05,83.75000000000001,0)" xlink:href="#O"/></g><g id="y"><use transform="matrix(0.05,0,0,0.05,0,0)" xlink:href="#G"/><use transform="matrix(0.05,0,0,0.05,9,0)" xlink:href="#an"/><use transform="matrix(0.05,0,0,0.05,14,0)" xlink:href="#T"/><use transform="matrix(0.05,0,0,0.05,24,0)" xlink:href="#an"/><use transform="matrix(0.05,0,0,0.05,29,0)" xlink:href="#L"/><use transform="matrix(0.05,0,0,0.05,39,0)" xlink:href="#G"/></g><path d="M160-131c35 5 61 23 61 61C221 17 115-2 30 0v-248c76 3 177-17 177 60 0 33-19 50-47 57zm-97-11c50-1 110 9 110-42 0-47-63-36-110-37v79zm0 115c55-2 124 14 124-45 0-56-70-42-124-44v89" id="aw"/><path d="M140-251c81 0 123 46 123 126C263-46 219 4 140 4 59 4 17-45 17-125s42-126 123-126zm0 227c63 0 89-41 89-101s-29-99-89-99c-61 0-89 39-89 99S79-25 140-24" id="ax"/><path d="M30 0v-248h33v221h125V0H30" id="ay"/><g id="z"><use transform="matrix(0.05,0,0,0.05,0,0)" xlink:href="#aw"/><use transform="matrix(0.05,0,0,0.05,12,0)" xlink:href="#ax"/><use transform="matrix(0.05,0,0,0.05,26,0)" xlink:href="#ax"/><use transform="matrix(0.05,0,0,0.05,40,0)" xlink:href="#ay"/></g><path d="M143 0L79-87 56-68V0H24v-261h32v163l83-92h37l-77 82L181 0h-38" id="az"/><g id="A"><use transform="matrix(0.05,0,0,0.05,0,0)" xlink:href="#ay"/><use transform="matrix(0.05,0,0,0.05,10,0)" xlink:href="#N"/><use transform="matrix(0.05,0,0,0.05,13.949999999999998,0)" xlink:href="#az"/><use transform="matrix(0.05,0,0,0.05,22.95,0)" xlink:href="#H"/></g><g id="B"><use transform="matrix(0.05,0,0,0.05,0,0)" xlink:href="#J"/><use transform="matrix(0.05,0,0,0.05,12,0)" xlink:href="#K"/><use transform="matrix(0.05,0,0,0.05,24,0)" xlink:href="#av"/><use transform="matrix(0.05,0,0,0.05,29,0)" xlink:href="#at"/><use transform="matrix(0.05,0,0,0.05,39.95,0)" xlink:href="#K"/></g><g id="C"><use transform="matrix(0.05,0,0,0.05,0,0)" xlink:href="#L"/><use transform="matrix(0.05,0,0,0.05,10,0)" xlink:href="#G"/><use transform="matrix(0.05,0,0,0.05,19,0)" xlink:href="#H"/><use transform="matrix(0.05,0,0,0.05,29,0)" xlink:href="#I"/><use transform="matrix(0.05,0,0,0.05,34.95,0)" xlink:href="#M"/><use transform="matrix(0.05,0,0,0.05,44.95,0)" xlink:href="#N"/><use transform="matrix(0.05,0,0,0.05,48.900000000000006,0)" xlink:href="#O"/></g><g id="D"><use transform="matrix(0.05,0,0,0.05,0,0)" xlink:href="#P"/><use transform="matrix(0.05,0,0,0.05,5,0)" xlink:href="#Q"/><use transform="matrix(0.05,0,0,0.05,17.950000000000003,0)" xlink:href="#R"/></g><g id="E"><use transform="matrix(0.05,0,0,0.05,0,0)" xlink:href="#ah"/><use transform="matrix(0.05,0,0,0.05,10,0)" xlink:href="#aj"/><use transform="matrix(0.05,0,0,0.05,20,0)" xlink:href="#G"/><use transform="matrix(0.05,0,0,0.05,29,0)" xlink:href="#an"/><use transform="matrix(0.05,0,0,0.05,34,0)" xlink:href="#M"/><use transform="matrix(0.05,0,0,0.05,44,0)" xlink:href="#N"/><use transform="matrix(0.05,0,0,0.05,47.95,0)" xlink:href="#O"/></g></defs></g></svg>